<?xml version="1.0" encoding="utf-8"?>
<!-- Svg Vector Icons : http://www.onlinewebfonts.com/icon -->
<!DOCTYPE svg PUBLIC "-//W3C//DTD SVG 1.1//EN" "http://www.w3.org/Graphics/SVG/1.1/DTD/svg11.dtd">
<svg version="1.1" xmlns="http://www.w3.org/2000/svg" xmlns:xlink="http://www.w3.org/1999/xlink" x="0px" y="0px" viewBox="0 0 1000 1000" enable-background="new 0 0 1000 1000" xml:space="preserve">
<metadata> Svg Vector Icons : http://www.onlinewebfonts.com/icon </metadata>
<g><path d="M397.3,612.9c0-1.3-0.1-2.5-0.3-3.7h-21.5l10.2-15.6c-3-1.6-6.5-2.5-10.2-2.5c-12,0-21.8,9.8-21.8,21.8c0,12,9.8,21.8,21.8,21.8S397.3,625,397.3,612.9z"/><path d="M934.7,528.7c0,0-80.2,55.1-142.7,10c6-11.8,11.6-24,16.8-36.8c44.8,2.4,90.6-10.9,112.5-53.7l5.5-10.9l-10.6-6.2c-25.9-15-60.4-17-89.8-8.4c-3.6-31.2-24.1-58.7-48.6-78.3l-9.6-7.7l-8.2,9.5c-16.3,18.9-21.1,50.3-18.9,74.5c1.6,17.7,7.3,35.8,18.1,50c-8.4,5-17.8,9-26.2,11.8c-17.2,5.8-35.7,9-53.8,9h-37.6v-80.1h-80.8v-78v-2.2v-78.9h-82.9v78.9h-78.8h-2h-80.8v80.2h-79.5v80.1h-65.1l-1.1,11.7c-1.4,15.4-1.5,30.8,0,46c-33,9.6-77.4,12.6-112.9-20.6c0,0-19.7,32.7-47.7,37.9h162.9c3,17.3,8.1,34.2,15.4,50.4l6.9,14.2l0.8,1.3c47.8,81.1,131.6,115.2,223,115.2c152.2,0,281.4-58.4,357.2-181H990C990,566.6,936.2,561.3,934.7,528.7z M623.5,425.4h6.3v55.7h-6.3V425.4z M609.9,425.4h6.3v55.7h-6.3V425.4z M596.3,425.4h6.3v55.7h-6.3V425.4z M582.7,425.4h6.3v55.7h-6.3V425.4z M570.6,425.4h6.3v55.7h-6.3V425.4z M542.6,265.1h6.3v55.7h-6.3V265.1z M542.6,343.9h6.3v55.7h-6.3V343.9z M542.6,425.4h6.3v55.7h-6.3V425.4z M529.1,265.1h6.3v55.7h-6.3V265.1z M529.1,343.9h6.3v55.7h-6.3V343.9z M529.1,425.4h6.3v55.7h-6.3V425.4z M515.5,265.1h6.3v55.7h-6.3V265.1z M515.5,343.9h6.3v55.7h-6.3V343.9z M515.5,425.4h6.3v55.7h-6.3V425.4z M501.9,265.1h6.3v55.7h-6.3V265.1z M501.9,343.9h6.3v55.7h-6.3V343.9z M501.9,425.4h6.3v55.7h-6.3V425.4z M489.8,265.1h6.3v55.7h-6.3V265.1z M489.8,343.9h6.3v55.7h-6.3V343.9z M489.8,425.4h6.3v55.7h-6.3V425.4z M461.8,343.9h6.3v55.7h-6.3V343.9z M461.8,425.4h6.3v55.7h-6.3V425.4z M448.2,343.9h6.3v55.7h-6.3V343.9z M448.2,425.4h6.3v55.7h-6.3V425.4z M434.6,343.9h6.3v55.7h-6.3V343.9z M434.6,425.4h6.3v55.7h-6.3V425.4z M421,343.9h6.3v55.7H421V343.9z M421,425.4h6.3v55.7H421V425.4z M408.9,343.9h6.3v55.7h-6.3V343.9z M408.9,425.4h6.3v55.7h-6.3V425.4z M381,343.9h6.3v55.7H381V343.9z M381,425.4h6.3v55.7H381V425.4z M367.4,343.9h6.3v55.7h-6.3V343.9z M367.4,425.4h6.3v55.7h-6.3V425.4z M353.8,343.9h6.3v55.7h-6.3V343.9z M353.8,425.4h6.3v55.7h-6.3V425.4z M340.2,343.9h6.3v55.7h-6.3V343.9z M340.2,425.4h6.3v55.7h-6.3V425.4z M328.1,343.9h6.3v55.7h-6.3V343.9z M328.1,425.4h6.3v55.7h-6.3V425.4z M300.6,425.4h6.3v55.7h-6.3V425.4z M287,425.4h6.3v55.7H287V425.4z M273.4,425.4h6.3v55.7h-6.3V425.4z M259.8,425.4h6.3v55.7h-6.3V425.4z M247.7,425.4h6.3v55.7h-6.3V425.4z M213.4,651l3.4-0.3c-2.8-0.3-4.6-0.6-5-0.6c-2.4-0.3-4-2.1-3.6-3.9c0.5-1.8,2.8-3,5.2-2.7c0.7,0.1,64.5,8.8,99.8-6.5l0,0l0,0c1.3-0.6,2.6-1.2,3.9-1.8c2-1.1,4.8-0.7,6.2,0.8c1.4,1.5,0.9,3.6-1.1,4.6c-2,1-4,1.9-6.1,2.8l1.4,3.2c0,0,26.9,49.8,117.4,94.3C434.9,741,296.6,757.2,213.4,651z M344.8,612.9c0-17,13.8-30.7,30.7-30.7c17,0,30.7,13.8,30.7,30.7c0,16.9-13.8,30.7-30.7,30.7S344.8,629.9,344.8,612.9z M792,538.6c-5.9,11.1-12.5,22.5-15.8,28l-602.7,0c-0.8-5.9-1.5-11.8-1.9-17.6c-0.1,0-0.2,0.1-0.3,0.1c27.2-8,46.5-20.4,46.5-20.4c72.3,60.9,192.7,0,192.7,0c90.7,60.9,173.6,0,173.6,0c122.6,65.4,196.1,0,196.1,0C784,532.4,788,535.7,792,538.6C792,538.6,792,538.6,792,538.6z"/></g>
</svg>