<?xml version="1.0" encoding="utf-8"?>
<!-- Generator: Adobe Illustrator 22.0.1, SVG Export Plug-In . SVG Version: 6.00 Build 0)  -->
<svg version="1.1" id="Layer_1" xmlns="http://www.w3.org/2000/svg" xmlns:xlink="http://www.w3.org/1999/xlink" x="0px" y="0px"
	 viewBox="0 0 50 67" style="enable-background:new 0 0 50 67;" xml:space="preserve">
<style type="text/css">
	.st0{fill:#080808;}
	.st1{fill:#FDFDFD;}
</style>
<title>go-lang</title>
<desc>Created with Sketch.</desc>
<g>
	<path class="st0" d="M43.2,36c0.1,1.6,0.2,3.1,0.2,4.5c0.1,3.6,0,7.1-1,10.6c-0.5,1.9-1.4,3.7-2.8,5.2c-0.3,0.3-0.3,0.4,0.1,0.7
		c0.9,0.6,1.5,1.4,1.9,2.3c0.5,1.2,0.2,2.3-0.9,2.9c-1.1,0.7-2.4,0.5-3.2-0.4c-0.5-0.6-1-1.3-1.7-1.8c-0.3-0.3-0.6-0.3-1-0.1
		c-2.9,1.4-6,2-9.2,2.1c-3.6,0.2-7.2-0.1-10.7-1.4c-0.7-0.3-1.3,0.1-1.9,0.4c-0.7,0.3-1.2,0.9-1.8,1.4c-1,0.8-2,0.9-3.1,0.2
		c-1.1-0.7-1.4-1.8-0.8-3c0.4-0.8,1.1-1.4,1.9-1.9c0.5-0.3,0.4-0.5,0.1-0.8C7,54.5,6,51.6,6.2,48.3c0.1-2.6,0-5.3,0-8
		c0-1.3,0-2.7,0-4.1c-0.3,0-0.4,0.2-0.7,0.4c-1.3,0.7-2.5,0.3-3.1-0.9c-0.6-1.4-0.2-2.6,1.2-3.2c0.7-0.3,1.5-0.6,2.2-0.6
		c0.5-0.1,0.6-0.3,0.6-0.7C6.3,29,6,26.9,5.8,24.8c-0.3-3.1-0.3-6.3,0.3-9.4c0.1-0.5,0-0.7-0.5-0.9c-1.8-0.9-2.7-2.8-2.5-4.9
		c0.2-1.8,1.5-3.3,3.3-3.8c1.4-0.3,2.7-0.2,4,0.3c0.2,0.1,0.4,0.2,0.6,0c2.7-2,5.8-2.9,9.1-3.3c3.3-0.4,6.6-0.6,9.9,0
		c2.3,0.4,4.5,1.1,6.5,2.5c0.3,0.2,0.6,0.2,1,0.1c1.5-0.7,3.1-0.7,4.6-0.1c1.7,0.7,2.7,2,2.8,3.9c0.1,1.8-0.6,3.3-2.2,4.3
		c-0.5,0.3-0.6,0.6-0.5,1.1c0.5,2.1,0.6,4.3,0.7,6.5c0,3.1,0,6.2,0,9.3c0,0.7,0.2,1.1,0.9,1.1c0.6,0,1.2,0.3,1.8,0.6
		c1.3,0.6,1.7,1.7,1.1,3.1c-0.5,1.2-1.6,1.6-2.9,1.1C43.7,36.2,43.5,36.1,43.2,36z M41.7,27c0-2.2,0.1-4.1,0-6.1
		c-0.1-2.3-0.3-4.7-0.9-6.9C39.3,8.6,36,5.3,30.5,4.2c-5.1-1-10.1-0.6-15,1.1c-3.5,1.2-5.9,3.5-7.2,7c-1.4,3.6-1.7,7.4-1.4,11.2
		c0.3,3.1,0.9,6.2,0.7,9.4c-0.3,5.3-0.2,10.6-0.2,15.9c0,3.7,1.5,6.5,4.5,8.6c1.5,1.1,3.3,1.8,5.1,2.4c5.5,1.6,11.1,1.3,16.4-0.6
		c4.6-1.6,7.3-5,8.3-9.8c0.6-3,0.7-6,0.6-9C42,35.8,41.5,31.3,41.7,27z M9.8,7.3c-1-0.3-2-0.4-2.9-0.2C5.5,7.4,4.6,8.5,4.4,10
		c-0.2,1.5,0.5,2.8,1.8,3.4c0.1,0.1,0.3,0.2,0.3,0c0.2-0.4,0.3-0.8,0.4-1.2c0.1-0.3-0.3-0.3-0.4-0.5c-0.6-0.5-0.7-1.5-0.4-2.2
		c0.4-0.7,1.2-1.2,1.8-1c0.7,0.2,1,0,1.2-0.5C9.4,7.8,9.6,7.6,9.8,7.3z M38,6.6c0.3,0.4,0.6,0.7,0.9,1c0.2,0.2,0.3,0.2,0.6,0.1
		c0.9-0.3,1.7,0,2.2,0.7c0.5,0.8,0.4,1.5-0.2,2.3c-0.2,0.2,0.1,1.7,0.4,1.8c0.1,0.1,0.2,0,0.3-0.1c1.1-0.8,1.6-1.8,1.5-3.1
		C43.5,8.1,43,7,41.7,6.5C40.5,6.1,39.3,6.1,38,6.6z M13,59.6c-0.6-0.4-1.2-0.7-1.7-1.1c-0.2-0.2-0.4-0.2-0.7,0
		c-0.4,0.2-0.8,0.4-1.1,0.8c0.4-0.1,0.7,0,0.9,0.3c0.2,0.4-0.1,0.6-0.3,0.9c-0.1,0.1-0.3,0.3-0.4,0.4c-0.1,0.2-0.5,0.5-0.3,0.8
		c0.3,0.3,0.7,0.1,1-0.1c0.1-0.1,0.2-0.1,0.3-0.2C11.3,60.7,12.1,60.1,13,59.6z M36.7,59c0.7,0.6,1.3,1.3,1.8,2
		c0.3,0.4,0.6,0.5,1.1,0.4c-0.1-0.5-0.3-1-0.6-1.4c-0.4-0.5-0.2-1,0.5-1.1c0.1,0,0.2,0.1,0.3-0.1c-0.8-1.2-1.2-1.3-2.3-0.4
		C37.3,58.5,37,58.7,36.7,59z M6.4,33c-1,0.3-2,0.4-2.8,1c0.4,0,0.8-0.1,1.1,0.3c0.4,0.7-0.5,0.8-0.7,1.2C5.2,35.8,6.4,34.6,6.4,33z
		 M45.5,33.7c-0.4-0.4-0.5-0.6-1.4-0.8c-1.2-0.3-1.1-0.4-1,0.9c0.1,0.9,1.2,1.6,2,1.3c-0.3-0.4-1.1-0.5-0.7-1.2
		C44.6,33.4,45,33.5,45.5,33.7z"/>
	<path class="st0" d="M24.7,14.3c0-3.3,2.8-6,6.1-6c3.4,0,6.2,2.7,6.2,6c0,3.3-2.8,6-6.2,6C27.4,20.3,24.7,17.6,24.7,14.3z
		 M26.8,16.6c-0.1,0-0.1,0-0.2,0c0,0.1,0,0.1,0.1,0.2c1.1,1.8,2.7,2.5,4.7,2.3c2-0.2,3.5-1.3,4.1-3.3c0.8-2.4-0.6-5-3-5.8
		c-2.6-0.9-5.4,0.4-6.3,3c0,0.1,0,0.1,0,0.2c0.1,0.1,0.1,0,0.1-0.1c1.3-0.9,2.5-0.8,3.4,0.2c0.7,0.8,0.7,1.9,0.1,2.8
		C29.1,16.9,28.1,17.1,26.8,16.6z"/>
	<path class="st0" d="M17,20.9c-3.5,0-6.1-2.6-6.1-6c0-3.3,2.7-5.9,6.1-5.9c3.5,0,6.2,2.6,6.2,6C23.1,18.3,20.4,20.9,17,20.9z
		 M12.4,13.7c0.8-0.8,1.8-1,2.7-0.5c0.9,0.4,1.3,1.4,1.1,2.4c-0.2,1-0.9,1.7-1.9,1.8c-0.5,0.1-1-0.1-1.5-0.3c0,0-0.1-0.1-0.1-0.1
		c-0.1,0.1,0,0.1,0,0.2c1.9,3,6.3,3.2,8.3,0.4c1.1-1.6,1.2-3.3,0.3-4.9c-1.1-1.8-2.7-2.7-4.8-2.5c-1.9,0.2-3.3,1.3-4.1,3.1
		C12.3,13.5,12.1,13.7,12.4,13.7c0,0-0.1-0.1-0.1-0.1c0,0,0,0,0,0C12.3,13.7,12.4,13.7,12.4,13.7z"/>
	<path class="st0" d="M21.2,28.2c0-0.2,0-0.4,0-0.6c0.1-0.4,0-0.5-0.4-0.6c-1.9-0.3-2.5-2.1-1.3-3.6c0.3-0.4,0.7-0.6,1.1-0.8
		c0.3-0.1,0.6-0.2,0.6-0.7c0-0.4,0.3-0.6,0.6-0.8c1.4-0.8,2.8-0.8,4.2-0.1c0.2,0.1,0.5,0.3,0.5,0.5c0.1,0.7,0.7,0.9,1.2,1.2
		c1,0.5,1.5,1.6,1.3,2.6c-0.2,0.8-0.6,1.4-1.5,1.5c-0.4,0.1-0.5,0.2-0.4,0.6c0.1,0.5,0.1,1,0,1.6c-0.1,1.4-1.2,2.1-2.5,1.6
		c-0.3-0.1-0.6-0.2-0.9-0.1c-1.6,0.6-2.8-0.2-2.7-1.9C21.2,28.5,21.2,28.3,21.2,28.2z M26.9,25.8c0.4,0,0.9,0,1.1-0.5
		c0.2-0.5-0.1-0.9-0.5-1.2c-0.3-0.2-0.6-0.6-1.1-0.3c-1.4,0.9-2.9,0.9-4.4,0.2c-0.7-0.4-1.7,0.2-1.8,1.1c0,0.5,0.2,0.8,0.7,0.9
		c0.6,0,1.1-0.1,1.6-0.3c1-0.5,2.1-0.6,3.1-0.1C26,25.7,26.5,25.8,26.9,25.8z M23.7,27.8C23.7,27.8,23.7,27.8,23.7,27.8
		c0-0.3,0-0.7,0-1c0-0.2-0.1-0.4-0.3-0.3c-0.4,0.2-1,0.2-0.9,0.9c0,0.4,0,0.8,0,1.3c0,0.4,0.1,0.7,0.5,0.7c0.4,0,0.6-0.2,0.7-0.7
		C23.7,28.5,23.7,28.2,23.7,27.8z M24.9,26.6c0,0.8,0,1.5,0,2.2c0,0.4,0.3,0.6,0.7,0.6c0.4,0,0.5-0.3,0.5-0.6c0-0.3,0-0.6,0-0.9
		C26.2,27.1,25.9,26.7,24.9,26.6z"/>
	<path class="st1" d="M26.7,16.7c0-0.1,0-0.1-0.1-0.2c0.1,0,0.1,0,0.2,0C26.8,16.6,26.7,16.6,26.7,16.7z"/>
	<path class="st1" d="M26.3,13c0,0.1-0.1,0.1-0.1,0.1c0,0,0-0.1,0-0.2C26.2,12.9,26.3,12.9,26.3,13z"/>
	<path class="st1" d="M12.7,17.3c0-0.1-0.1-0.1,0-0.2c0,0,0.1,0.1,0.1,0.1C12.8,17.2,12.8,17.2,12.7,17.3z"/>
	<path class="st1" d="M12.4,13.7c0,0-0.1-0.1-0.1-0.1c0,0,0,0,0,0C12.4,13.7,12.4,13.7,12.4,13.7C12.4,13.8,12.4,13.7,12.4,13.7z"/>
</g>
</svg>
