<?xml version="1.0" encoding="utf-8"?>
<!-- Generator: Adobe Illustrator 22.0.1, SVG Export Plug-In . SVG Version: 6.00 Build 0)  -->
<svg version="1.1" id="Layer_1" xmlns="http://www.w3.org/2000/svg" xmlns:xlink="http://www.w3.org/1999/xlink" x="0px" y="0px"
	 viewBox="0 0 28 59" style="enable-background:new 0 0 28 59;" xml:space="preserve">
<style type="text/css">
	.st0{fill:#030303;}
</style>
<title>mongodb</title>
<desc>Created with Sketch.</desc>
<g>
	<path d="M0.9,26.2C1,25.9,1,25.5,1,25.2c0.5-6.9,2.6-13.1,6.8-18.6c1.4-1.8,2.9-3.4,4.7-4.9c0.1-0.1,0.2-0.2,0.4-0.4
		c0.1,0.1,0.1,0.1,0.1,0.2C13,4.2,13,6.9,13.1,9.6c0.1,5.5,0.1,11,0.1,16.5c0,2.4,0.1,4.8,0,7.2c-0.1,2.8-0.2,5.6-0.5,8.4
		c-0.2,2.3-0.5,4.6-0.9,6.9c0,0.2-0.1,0.5-0.2,0.8c-0.5-0.4-0.9-0.8-1.3-1.2c-3.3-3.2-5.9-6.8-7.6-11c-1.1-2.7-1.7-5.4-1.8-8.3
		c0-0.1,0-0.1-0.1-0.1c0-0.1,0-0.3,0-0.4C1,28,0.9,27.8,0.9,27.6c0-0.3,0.1-0.7-0.1-1C0.9,26.5,0.9,26.3,0.9,26.2z"/>
	<path d="M27.3,29.1c-0.1,0.3-0.1,0.5-0.1,0.8c-0.3,3.6-1.2,7-2.8,10.2c-1.7,3.4-4,6.4-6.9,8.9c-0.2,0.1-0.3,0.1-0.4,0
		c-0.5-0.7-0.8-1.5-1.1-2.3c-0.4-1.4-0.7-2.8-0.7-4.3c0-0.7,0.1-1.5,0.2-2.2c0.2-1.8,0.3-3.7,0.3-5.5c0.2-5.1,0-10.3,0-15.4
		c0-4,0-8-0.1-12c0-1.7-0.1-3.3-0.1-5c0.2,0.4,0.5,0.7,0.7,1c1.4,1.4,2.8,2.9,4,4.5c2.7,3.5,4.5,7.4,5.8,11.6c0.7,2.3,1.1,4.6,1.2,7
		c0,0.1,0,0.1,0.1,0.2c0,0.2,0,0.4,0,0.6c-0.1,0.3,0,0.7-0.1,1c0,0.2-0.1,0.4,0.1,0.5C27.3,28.6,27.3,28.8,27.3,29.1z"/>
	<path class="st0" d="M0.9,26.6c0.1,0.3,0,0.7,0.1,1c0,0.2,0.1,0.4-0.1,0.6C0.9,27.7,0.9,27.1,0.9,26.6z"/>
	<path class="st0" d="M15.4,57.6c-0.5-0.2-1-0.3-1.4-0.5c-0.1,0-0.1-0.1-0.1-0.2c0-1.2-0.1-2.4-0.2-3.5c0-0.3-0.1-0.5-0.1-0.8
		c-0.1-0.3,0-0.6,0.1-0.9c0.3-0.6,0.5-1.4,0.6-2.1c0.4,0.6,0.8,1,1.2,1.5c0.1,0.1,0.1,0.1,0,0.2c-0.3,1.4-0.3,2.9-0.3,4.4
		C15.4,56.3,15.4,57,15.4,57.6z"/>
</g>
</svg>
