<svg class="svg-icon" style="width: 1em; height: 1em;vertical-align: middle;fill: currentColor;overflow: hidden;" viewBox="0 0 1024 1024" version="1.1" xmlns="http://www.w3.org/2000/svg"><path d="M329.295 693.343h-27.169q-1.42-68.97-7.947-129.687h-0.235l-41.359 129.687H231.92l-41.096-129.687h-0.242q-4.587 58.345-5.78 129.687h-24.77q2.41-86.79 12.011-162.73h33.661l39.18 119.572h0.243l39.422-119.572h32.209q10.591 88.935 12.495 162.73h0.043z m117.831-120.049q-16.6 90.253-43.757 131.182-21.151 31.515-46.399 31.526c-4.486 0-10.01-1.366-16.588-4.05v-14.496a79.99 79.99 0 0 0 11.307 0.722q11.78 0 18.987-6.502 8.645-7.948 8.645-17.842 0-6.766-6.734-27.718l-29.806-92.822h26.685l21.4 69.406q7.192 23.629 6.007 33.043 17.557-47.023 24.529-102.453h25.717z m118.972 74.95q0 20.693-15.136 33.99-15.147 13.233-40.611 13.244-23.842 0-46.156-15.202l6.975-13.969q19.24 9.635 34.846 9.635 14.652 0 22.968-6.503c5.523-4.335 8.821-10.382 8.821-18.062 0-9.656-6.708-17.929-19.052-24.86-11.375-6.272-34.144-19.338-34.144-19.338-12.319-9.031-18.503-18.677-18.503-34.63q0-19.766 13.814-31.944t35.705-12.188q22.603 0 41.095 12.054l-6.271 13.97q-15.84-6.734-31.24-6.734-12.507 0-19.23 6.03c-4.508 4.002-7.282 9.15-7.282 15.42 0 9.635 6.864 17.998 19.536 25.057 11.527 6.27 34.824 19.6 34.824 19.6 12.672 9 18.987 18.59 18.987 34.388z m48.577 12.54q-9.866-15.895-9.855-51.105 0-61.444 37.266-61.466 19.47 0 28.621 14.695 9.833 15.895 9.855 50.621 0 61.94-37.266 61.972-19.471 0-28.6-14.717h-0.021z m96.643 36.485l-29.831-14.738a55.249 55.249 0 0 0 7.456-7.261q19.008-22.398 19.008-66.285 0-80.749-63.217-80.76-31.02 0-48.335 20.504-19.008 22.398-18.987 66.043 0 42.898 16.83 62.918 15.346 18.084 46.377 18.084 11.582 0 21.252-2.861l38.852 22.66 10.58-18.282z m97.37-3.916h-77.17V530.61h25.96v142.713h51.192v20.02h0.021z m18.524-0.021h4.314v-16.578h5.631v-3.395h-15.771v3.388h5.863v16.567h-0.022z m32.736 0h4.05v-19.93h-6.094l-4.971 13.597-5.419-13.597h-5.874v19.93h3.83V678.16h0.22l5.653 15.172h2.927l5.653-15.172v15.172h0.022z m-27.815-193.475c-14.255-0.361-25.31 1.058-34.564 4.996-2.68 1.084-6.936 1.084-7.315 4.458 1.445 1.42 1.6 3.738 2.857 5.718 2.139 3.58 5.856 8.395 9.255 10.895 3.739 2.858 7.478 5.719 11.415 8.215 6.936 4.299 14.811 6.798 21.552 11.094 3.938 2.5 7.836 5.718 11.773 8.395 1.958 1.42 3.197 3.757 5.697 4.638v-0.538c-1.26-1.6-1.6-3.92-2.84-5.718-1.78-1.781-3.558-3.4-5.357-5.177a84.74 84.74 0 0 0-18.532-18.033c-5.696-3.938-18.192-9.295-20.49-15.895l-0.36-0.361c3.919-0.362 8.557-1.807 12.282-2.89 6.058-1.6 11.56-1.24 17.813-2.84 2.857-0.722 5.697-1.618 8.576-2.5v-1.618c-3.22-3.219-5.538-7.496-8.916-10.534-9.074-7.857-19.07-15.533-29.405-21.97-5.538-3.58-12.644-5.878-18.532-8.938-2.12-1.083-5.697-1.6-6.936-3.399-3.218-3.938-4.996-9.096-7.315-13.753-5.159-9.815-10.155-20.71-14.612-31.085-3.197-6.957-5.159-13.933-9.096-20.37-18.373-30.388-38.292-48.768-68.951-66.809-6.596-3.757-14.45-5.357-22.809-7.336-4.458-0.181-8.915-0.539-13.366-0.701-2.857-1.261-5.719-4.657-8.197-6.257-10.154-6.437-36.344-20.37-43.84-1.958-4.82 11.614 7.138 23.051 11.234 28.946 3.02 4.097 6.958 8.757 9.075 13.395 1.239 3.038 1.6 6.257 2.857 9.476 2.84 7.857 5.517 16.617 9.277 23.95 1.958 3.757 4.097 7.698 6.578 11.076 1.445 1.98 3.92 2.857 4.458 6.076-2.478 3.58-2.68 8.937-4.096 13.395-6.416 20.19-3.92 45.199 5.176 60.032 2.84 4.457 9.617 14.294 18.713 10.533 8.016-3.218 6.238-13.394 8.558-22.328 0.538-2.167 0.18-3.58 1.239-4.996v0.361c2.5 4.996 4.996 9.815 7.315 14.833 5.538 8.735 15.154 17.853 23.17 23.929 4.259 3.25 7.655 8.756 13.005 10.736v-0.538h-0.34c-1.084-1.6-2.68-2.32-4.096-3.559-3.197-3.218-6.756-7.156-9.277-10.714-7.478-9.996-14.089-21.09-19.952-32.512-2.857-5.556-5.357-11.614-7.676-17.152-1.058-2.139-1.058-5.357-2.857-6.437-2.68 3.92-6.597 7.315-8.558 12.134-3.378 7.698-3.74 17.152-4.996 26.988-0.701 0.181-0.34 0-0.701 0.362-5.697-1.42-7.655-7.316-9.797-12.315-5.34-12.694-6.239-33.065-1.6-47.717 1.239-3.739 6.596-15.533 4.457-19.11-1.083-3.417-4.638-5.357-6.596-8.055-2.32-3.4-4.819-7.677-6.398-11.434-4.277-9.995-6.437-21.09-11.054-31.085-2.138-4.656-5.899-9.475-8.915-13.752-3.4-4.82-7.138-8.215-9.815-13.934-0.878-1.98-2.139-5.198-0.723-7.315 0.34-1.445 1.084-1.98 2.5-2.319 2.298-1.958 8.898 0.538 11.199 1.6 6.596 2.68 12.116 5.199 17.632 8.938 2.5 1.806 5.177 5.176 8.377 6.076h3.757c5.697 1.239 12.116 0.34 17.474 1.958 9.435 3.038 17.993 7.495 25.648 12.333 23.33 14.832 42.58 35.922 55.574 61.111 2.138 4.097 3.038 7.857 4.996 12.134 3.739 8.775 8.377 17.701 12.116 26.27 3.739 8.395 7.315 16.978 12.643 23.95 2.66 3.74 13.366 5.719 18.17 7.677 3.56 1.6 9.097 3.038 12.283 4.996 6.058 3.739 12.095 8.038 17.813 12.156 2.84 2.138 11.755 6.596 12.282 10.176zM650.39 344.554a27.939 27.939 0 0 0-7.297 0.9v0.361h0.34c1.444 2.858 3.937 4.837 5.696 7.337 1.445 2.857 2.68 5.697 4.118 8.576 0.18-0.18 0.34-0.361 0.34-0.361 2.528-1.781 3.757-4.639 3.757-8.937-1.084-1.261-1.24-2.5-2.139-3.757-1.058-1.781-3.378-2.68-4.819-4.097v-0.022z"  /><path d="M897.586 255.988a30.287 30.287 0 0 1 30.25 30.25v451.52a30.287 30.287 0 0 1-30.25 30.25H126.18a30.287 30.287 0 0 1-30.25-30.25v-451.52a30.287 30.287 0 0 1 30.25-30.25h771.407m0-31.988H126.18A62.239 62.239 0 0 0 63.94 286.24v451.519a62.239 62.239 0 0 0 62.239 62.238h771.407a62.239 62.239 0 0 0 62.239-62.238v-451.52A62.239 62.239 0 0 0 897.586 224z"  /></svg>