<?xml version="1.0" encoding="utf-8"?>
<!-- Generator: Adobe Illustrator 22.0.1, SVG Export Plug-In . SVG Version: 6.00 Build 0)  -->
<svg version="1.1" id="Layer_1" xmlns="http://www.w3.org/2000/svg" xmlns:xlink="http://www.w3.org/1999/xlink" x="0px" y="0px"
	 viewBox="0 0 57 63" style="enable-background:new 0 0 57 63;" xml:space="preserve">
<style type="text/css">
	.st0{fill:#020202;}
	.st1{fill:#FEFEFE;}
</style>
<title>postgreesql</title>
<desc>Created with Sketch.</desc>
<path class="st0" d="M44.1,43.5c-0.1,0.7-0.1,1.3-0.2,2c-0.1,0.8-0.2,1.6-0.3,2.3c-0.1,0.8-0.2,1.7-0.2,2.5
	c-0.1,1.6-0.3,3.2-0.7,4.7c-0.5,1.8-1.5,3.1-2.9,4.2c-1.3,0.9-2.8,1.6-4.4,1.8c-1,0.2-1.9,0-2.8-0.2c-1.9-0.5-3-1.8-3.8-3.5
	c-0.5-1.1-0.7-2.2-0.9-3.4c-0.2-1.3-0.2-2.6-0.2-3.9c0-1.5,0-3.1-0.1-4.6c0-0.1,0-0.1,0-0.2c-0.1,0-0.2,0.1-0.2,0.1
	c-0.6,0.4-1.2,0.7-1.8,0.9c-1.1,0.4-2.2,0.6-3.4,0.5c-1.4-0.1-2.7-0.6-3.9-1.3c-0.4-0.3-0.8-0.6-1-1c-0.2-0.4-0.3-0.8-0.1-1.3
	c0,0,0-0.1,0-0.1c-0.2,0.2-0.3,0.4-0.5,0.6c-0.5,0.6-1.1,1.1-1.8,1.5c-1.3,0.7-2.8,0.5-3.9-0.6c-1.3-1.2-2.3-2.7-3.1-4.3
	c-0.7-1.5-1.1-3.1-1.7-4.7c-0.6-1.6-1.1-3.2-1.6-4.9c-0.6-2-1.1-3.9-1.5-5.9c-0.2-1.1-0.4-2.3-0.5-3.4c-0.1-0.9-0.2-1.8-0.3-2.7
	c-0.2-1.6-0.2-3.2,0-4.8c0.3-2.1,1-4.1,2.2-5.9C5.2,7,6.1,6.3,7,5.7c1.3-0.8,2.8-1.3,4.3-1.6c1.1-0.3,2.2-0.4,3.4-0.5
	c1.5,0,3,0.2,4.4,0.6C20.5,4.5,21.7,5,23,5.6c0.1,0.1,0.2,0,0.3,0c1.6-1.2,3.4-1.9,5.4-2.2c1.7-0.2,3.5,0,5.1,0.5
	c0.4,0.1,0.7,0.2,1.1,0.3c0.1,0,0.2,0,0.3,0c1.5-0.7,3.1-1.1,4.8-1.3c2.6-0.3,5.1,0.2,7.5,1.3c3,1.4,5.2,3.6,6.8,6.5
	c0.8,1.4,1,2.9,0.9,4.5c-0.1,1.5-0.5,2.9-0.8,4.4c-0.4,1.9-0.9,3.7-1.5,5.6c-1,3.1-2.2,6.2-3.8,9.1c-0.3,0.5-0.6,0.9-0.9,1.4
	c-0.3,0.5-0.6,1-1,1.5c-0.1,0.1-0.1,0.1,0,0.2c0.4,0.3,0.8,0.5,1.3,0.4c1-0.1,1.9-0.2,2.9-0.3c0.5-0.1,1-0.1,1.5-0.1
	c1.2,0,1.8,1.2,1.5,2.1c-0.2,0.6-0.5,1.1-0.9,1.5c-0.4,0.4-0.7,0.7-1.2,1.1c-0.4,0.3-0.9,0.5-1.4,0.7c-1,0.5-2,0.8-3.2,1
	c-0.7,0.1-1.4,0.1-2.2,0C45.2,43.7,44.7,43.6,44.1,43.5z M17.9,42.4C17.9,42.4,17.9,42.4,17.9,42.4c0.6-0.4,1.2-0.5,1.9-0.7
	c0.7-0.1,1.4-0.3,2.1-0.6c1-0.4,1.8-1,2.3-2c0,0-0.1,0-0.1,0c-0.8-0.2-1.6-0.5-2.4-0.8c-0.2-0.1-0.3-0.1-0.4,0.1
	c-0.6,0.8-1.3,1.6-1.9,2.3C18.8,41.3,18.4,41.8,17.9,42.4C17.9,42.4,17.9,42.4,17.9,42.4C17.9,42.4,17.9,42.5,17.9,42.4
	C17.8,42.5,17.9,42.5,17.9,42.4C17.9,42.5,17.9,42.5,17.9,42.4z M19.5,18.4c1.2-0.5,2.3-0.9,3.6-1c0.8-0.1,1.7,0,2.4,0.4
	c1.6,0.8,2.4,2.1,2.9,3.7c0.4,1.5,0.5,3.2,0.5,4.8c0,1.5-0.1,3-0.3,4.5c-0.2,1.2-0.7,2.4-1.2,3.5c-0.4,0.9-0.6,1.7-0.7,2.7
	c0,0.1,0,0.2,0.1,0.2c0.3,0,0.5,0.1,0.8,0.1c0.5,0.1,1,0.2,1.4,0.6c0.7,0.7,1,1.7,1.1,2.7c0.1,0.9,0.1,1.8,0.1,2.7
	c0,2.3,0,4.5,0.1,6.8c0,1.2,0,2.4,0.2,3.6c0.1,1,0.4,2.1,0.9,3c0.3,0.6,0.8,1.2,1.5,1.5c0.7,0.3,1.5,0.3,2.2,0.2c1-0.1,2-0.5,2.9-1
	c0.7-0.4,1.4-0.9,1.8-1.6c0.5-0.8,0.7-1.7,0.9-2.5c0.2-1.2,0.3-2.3,0.4-3.5c0.1-0.9,0.1-1.9,0.2-2.8c0.1-1.3,0.2-2.5,0.3-3.8
	c0.1-1.2,0.3-2.3,0.6-3.5c0.2-1,0.7-1.8,1.6-2.3c0.1-0.1,0-0.1,0-0.2c-0.8-1-1.4-2.1-1.9-3.2c-1.1-2.5-2.1-5-3.1-7.5
	c-0.7-1.7-1-3.5-0.8-5.4c0.1-0.9,0.5-1.7,1.2-2.3c1.5-1.3,3.2-1.8,5.2-1.7c0.1,0,0.2,0,0.3,0c-0.2-0.5-0.4-1-0.7-1.4
	c-0.6-1-1.3-2-2-3c-0.5-0.7-0.9-1.3-1.5-1.9c-2.7-2.8-6-4.4-9.9-4.8c-1-0.1-2,0-3,0.3c-1.4,0.4-2.6,1.2-3.7,2.2
	c-1.5,1.3-2.6,2.9-3.2,4.8c-0.4,1.2-0.7,2.4-0.9,3.7C19.6,17.3,19.6,17.8,19.5,18.4z M21.1,7.5c-1.7-0.7-3.4-1.2-5.2-1.3
	c-1.1-0.1-2.3,0-3.4,0.2c-1.4,0.2-2.7,0.6-3.9,1.3c-0.8,0.4-1.5,1-1.9,1.7c-1.2,2-1.9,4.1-1.9,6.5c0,1.8,0.2,3.7,0.5,5.5
	c0.3,1.8,0.7,3.6,1.1,5.4c0.3,1.2,0.6,2.4,0.9,3.6c0.7,2.5,1.6,4.9,2.4,7.4c0.5,1.6,1.2,3.1,2.4,4.4c0.3,0.3,0.6,0.6,0.9,0.8
	c0.2,0.2,0.4,0.2,0.7,0c0.3-0.2,0.6-0.4,0.8-0.6c1.6-1.7,3.1-3.4,4.5-5.2c0.1-0.1,0.2-0.2,0.3-0.4c0-0.1-0.2-0.2-0.3-0.3
	c0,0-0.1-0.1-0.1-0.1c-1.5-1.8-2.3-3.8-2.3-6.2c0-1.1,0.2-2.1,0.2-3.1c0-0.4,0.1-0.7,0.1-1.1c-0.1-1-0.2-2-0.3-3.1
	c-0.1-1.7,0-3.4,0.3-5.1c0.2-1.2,0.4-2.5,0.7-3.7c0.4-1.5,0.9-3,1.8-4.4C19.9,8.8,20.5,8.2,21.1,7.5z M46.9,33.2
	C46.9,33.2,46.9,33.2,46.9,33.2C47,33.2,47,33.2,46.9,33.2c1-1.7,1.8-3.3,2.4-5.1c1-2.6,1.8-5.2,2.5-7.9c0.5-1.7,0.9-3.5,1-5.3
	c0-0.8,0-1.5-0.1-2.3c-0.1-0.8-0.5-1.4-0.9-2.1c-1.3-1.7-2.8-3-4.7-3.9c-2.2-1-4.4-1.5-6.8-1.3c-0.6,0.1-1.2,0.2-1.8,0.3
	c0.5,0.3,0.9,0.6,1.3,0.9c1.3,1,2.5,2,3.5,3.3c0.8,1.1,1.6,2.2,2.3,3.4c0.6,0.8,1,1.7,1.3,2.6c0.4,1,0.6,2,0.7,3.1
	c0,0.5-0.1,1-0.1,1.4c-0.1,1.1-0.2,2.2-0.3,3.4C47,24.5,47,25.3,47,26c0.1,1.1,0.2,2.3,0.3,3.4c0.1,1,0,1.9-0.2,2.8
	C47.1,32.6,47,32.9,46.9,33.2z M26.5,26.4c0-0.4,0-0.9-0.1-1.5c0-0.6-0.1-1.2-0.2-1.7c-0.1-0.6-0.2-1.3-0.4-1.9
	c-0.4-0.9-1.2-1.5-2.1-1.5c-0.5,0-0.9,0.1-1.4,0.2c-1.1,0.2-2.1,0.6-3,1.4c-0.1,0.1-0.1,0.1-0.1,0.2c0,1,0,2,0.1,3
	c0,0.5,0.2,1,0.1,1.5c-0.1,0.9-0.1,1.8-0.2,2.6c-0.1,1-0.1,2.1,0.1,3.1c0.3,1.2,0.7,2.2,1.6,3c1,0.9,2.1,1.5,3.4,1.8
	c0.1,0,0.1-0.1,0.1-0.1c0-1.1,0.3-2.2,0.7-3.2c0.2-0.5,0.4-1,0.6-1.5C26.4,30.1,26.5,28.4,26.5,26.4z M44.3,33.6
	c0.2-0.7,0.4-1.4,0.4-2.1c0.1-1.1,0-2.3-0.1-3.4c-0.1-0.9-0.2-1.8-0.2-2.7c0-0.9,0.2-1.9,0.2-2.8c0.1-0.9,0.2-1.8,0.2-2.7
	c0-0.1,0-0.2-0.2-0.2c-0.2,0-0.5-0.1-0.7-0.1c-1.1-0.1-2,0.2-2.9,0.8c-0.3,0.3-0.6,0.5-0.7,1c-0.2,0.7-0.2,1.5-0.1,2.2
	c0.1,1,0.5,1.8,0.9,2.7c0.8,1.9,1.6,3.8,2.5,5.7C43.9,32.5,44.1,33,44.3,33.6z M21,44c1,0.3,2,0.4,3,0.2c1.2-0.3,2.3-1,3.3-1.9
	c0.2-0.2,0.3-0.4,0.3-0.7c0-0.2,0-0.4,0-0.6c0-0.3-0.1-0.6-0.2-0.9c-0.1-0.3-0.3-0.4-0.5-0.4c-0.1,0-0.2,0-0.3,0.1
	c-0.5,1.2-1.2,2.2-2.3,2.9c-0.8,0.5-1.7,0.9-2.6,1.1C21.5,43.9,21.3,44,21,44z M51,40.2C51,40.1,50.9,40.1,51,40.2
	c-0.7,0.1-1.4,0.1-2,0.1c-0.9,0.1-1.8-0.2-2.6-0.7c-0.2-0.1-0.4-0.4-0.6-0.4c-0.2,0-0.5,0.2-0.7,0.3c-0.2,0.1-0.3,0.2-0.3,0.3
	c-0.1,0.3-0.2,0.6-0.2,1c0,0.1,0,0.1,0.1,0.1c0.3,0.1,0.6,0.1,0.9,0.2c1.5,0.3,2.9,0.3,4.3-0.3C50.2,40.7,50.6,40.5,51,40.2z"/>
<path class="st1" d="M17.9,42.4c0.5-0.5,0.9-1.1,1.4-1.6c0.6-0.8,1.3-1.6,1.9-2.3c0.1-0.1,0.2-0.2,0.4-0.1c0.8,0.4,1.5,0.7,2.4,0.8
	c0.1,0,0.1,0,0.1,0c-0.5,1-1.3,1.6-2.3,2c-0.7,0.3-1.4,0.5-2.1,0.6C19.1,41.9,18.5,42.1,17.9,42.4C17.9,42.4,17.9,42.4,17.9,42.4z"
	/>
<path class="st1" d="M17.9,42.4C17.9,42.4,17.9,42.4,17.9,42.4C17.9,42.4,17.9,42.4,17.9,42.4C17.9,42.4,17.9,42.4,17.9,42.4
	L17.9,42.4z"/>
<path class="st1" d="M17.9,42.4C17.9,42.5,17.9,42.5,17.9,42.4C17.9,42.5,17.8,42.5,17.9,42.4C17.9,42.5,17.9,42.4,17.9,42.4
	L17.9,42.4z"/>
<path class="st0" d="M23.8,21.6c0.5,0,1,0.2,1.5,0.5c0.3,0.2,0.3,0.3,0.2,0.6c-0.5,0.9-1.7,1.1-2.4,0.3c-0.1-0.1-0.1-0.2-0.2-0.3
	c-0.3-0.3-0.2-0.7,0.2-0.9C23.3,21.7,23.6,21.6,23.8,21.6z"/>
<path class="st0" d="M42.8,20.7c0.2,0,0.3,0,0.5,0c0.3,0.1,0.4,0.3,0.3,0.5c-0.2,0.5-0.6,0.9-1.1,1.1c-0.1,0-0.3,0-0.4,0
	c-0.5-0.1-0.8-0.4-1-0.9c-0.1-0.2,0-0.4,0.3-0.5C41.8,20.8,42.3,20.7,42.8,20.7z"/>
</svg>
